<?xml version="1.0" encoding="UTF-8"?>
<svg xmlns="http://www.w3.org/2000/svg" width="800.000" height="600.000" viewBox="0.0 0.0 800.000 600.000" version="1.1">
  <desc>Produce by Acme CAD Converter</desc>
<path d="M223.05 301.38L368.19 301.38"
fill="none" stroke="black" stroke-width="0.5"/>
<path d="M368.19 301.38L323.19 263.62"
fill="none" stroke="black" stroke-width="0.5"/>
<path d="M323.19 263.62L349.69 252.37"
fill="none" stroke="black" stroke-width="0.5"/>
<path d="M223.05 301.38L241.41 285.98"
fill="none" stroke="black" stroke-width="0.5"/>
<path d="M223.05 339.78L223.05 373.66Z"
fill="none" stroke="black" stroke-width="0.5"/>
<path d="M368.19 339.78L368.19 373.66Z"
fill="none" stroke="black" stroke-width="0.5"/>
<path d="M236.88 359.84L354.37 359.84"
fill="none" stroke="black" stroke-width="0.5"/>
<path d="M368.19 359.84L382.01 359.84"
fill="none" stroke="black" stroke-width="0.5"/>
<path d="M236.88 357.54L223.05 359.84 223.05 359.84 236.88 362.15 236.88 357.54Z"
fill="black" stroke="black" stroke-width="0.2"/>
<path d="M354.37 357.54L368.19 359.84 368.19 359.84 354.37 362.15 354.37 357.54Z"
fill="black" stroke="black" stroke-width="0.2"/>
<path d="M375.33 347.96L378.99 346.13"
fill="none" stroke="black" stroke-width="0.5"/>
<path d="M378.99 346.13L384.47 340.64"
fill="none" stroke="black" stroke-width="0.5"/>
<path d="M384.47 340.64L384.47 379.04Z"
fill="none" stroke="black" stroke-width="0.5"/>
<path d="M406.41 375.38L404.58 377.21"
fill="none" stroke="black" stroke-width="0.5"/>
<path d="M404.58 377.21L406.41 379.04"
fill="none" stroke="black" stroke-width="0.5"/>
<path d="M406.41 379.04L408.24 377.21"
fill="none" stroke="black" stroke-width="0.5"/>
<path d="M432.01 340.64L426.52 342.47"
fill="none" stroke="black" stroke-width="0.5"/>
<path d="M426.52 342.47L424.7 346.13"
fill="none" stroke="black" stroke-width="0.5"/>
<path d="M424.7 346.13L424.7 349.79Z"
fill="none" stroke="black" stroke-width="0.5"/>
<path d="M424.7 349.79L426.52 353.44"
fill="none" stroke="black" stroke-width="0.5"/>
<path d="M426.52 353.44L430.18 355.27"
fill="none" stroke="black" stroke-width="0.5"/>
<path d="M430.18 355.27L437.49 357.1"
fill="none" stroke="black" stroke-width="0.5"/>
<path d="M437.49 357.1L442.98 358.93"
fill="none" stroke="black" stroke-width="0.5"/>
<path d="M442.98 358.93L446.64 362.58"
fill="none" stroke="black" stroke-width="0.5"/>
<path d="M446.64 362.58L448.46 366.24"
fill="none" stroke="black" stroke-width="0.5"/>
<path d="M448.46 366.24L448.46 371.73Z"
fill="none" stroke="black" stroke-width="0.5"/>
<path d="M448.46 371.73L446.64 375.38"
fill="none" stroke="black" stroke-width="0.5"/>
<path d="M446.64 375.38L444.81 377.21"
fill="none" stroke="black" stroke-width="0.5"/>
<path d="M444.81 377.21L439.32 379.04"
fill="none" stroke="black" stroke-width="0.5"/>
<path d="M439.32 379.04L432.01 379.04"
fill="none" stroke="black" stroke-width="0.5"/>
<path d="M432.01 379.04L426.52 377.21"
fill="none" stroke="black" stroke-width="0.5"/>
<path d="M426.52 377.21L424.7 375.38"
fill="none" stroke="black" stroke-width="0.5"/>
<path d="M424.7 375.38L422.87 371.73"
fill="none" stroke="black" stroke-width="0.5"/>
<path d="M422.87 371.73L422.87 366.24Z"
fill="none" stroke="black" stroke-width="0.5"/>
<path d="M422.87 366.24L424.7 362.58"
fill="none" stroke="black" stroke-width="0.5"/>
<path d="M424.7 362.58L428.35 358.93"
fill="none" stroke="black" stroke-width="0.5"/>
<path d="M428.35 358.93L433.84 357.1"
fill="none" stroke="black" stroke-width="0.5"/>
<path d="M433.84 357.1L441.15 355.27"
fill="none" stroke="black" stroke-width="0.5"/>
<path d="M441.15 355.27L444.81 353.44"
fill="none" stroke="black" stroke-width="0.5"/>
<path d="M444.81 353.44L446.64 349.79"
fill="none" stroke="black" stroke-width="0.5"/>
<path d="M446.64 349.79L446.64 346.13Z"
fill="none" stroke="black" stroke-width="0.5"/>
<path d="M446.64 346.13L444.81 342.47"
fill="none" stroke="black" stroke-width="0.5"/>
<path d="M444.81 342.47L439.32 340.64"
fill="none" stroke="black" stroke-width="0.5"/>
<path d="M439.32 340.64L432.01 340.64"
fill="none" stroke="black" stroke-width="0.5"/>
<path d="M483.2 353.44L481.37 358.93"
fill="none" stroke="black" stroke-width="0.5"/>
<path d="M481.37 358.93L477.72 362.58"
fill="none" stroke="black" stroke-width="0.5"/>
<path d="M477.72 362.58L472.23 364.41"
fill="none" stroke="black" stroke-width="0.5"/>
<path d="M472.23 364.41L470.4 364.41"
fill="none" stroke="black" stroke-width="0.5"/>
<path d="M470.4 364.41L464.92 362.58"
fill="none" stroke="black" stroke-width="0.5"/>
<path d="M464.92 362.58L461.26 358.93"
fill="none" stroke="black" stroke-width="0.5"/>
<path d="M461.26 358.93L459.43 353.44"
fill="none" stroke="black" stroke-width="0.5"/>
<path d="M459.43 353.44L459.43 351.61Z"
fill="none" stroke="black" stroke-width="0.5"/>
<path d="M459.43 351.61L461.26 346.13"
fill="none" stroke="black" stroke-width="0.5"/>
<path d="M461.26 346.13L464.92 342.47"
fill="none" stroke="black" stroke-width="0.5"/>
<path d="M464.92 342.47L470.4 340.64"
fill="none" stroke="black" stroke-width="0.5"/>
<path d="M470.4 340.64L472.23 340.64"
fill="none" stroke="black" stroke-width="0.5"/>
<path d="M472.23 340.64L477.72 342.47"
fill="none" stroke="black" stroke-width="0.5"/>
<path d="M477.72 342.47L481.37 346.13"
fill="none" stroke="black" stroke-width="0.5"/>
<path d="M481.37 346.13L483.2 353.44"
fill="none" stroke="black" stroke-width="0.5"/>
<path d="M483.2 353.44L483.2 362.58Z"
fill="none" stroke="black" stroke-width="0.5"/>
<path d="M483.2 362.58L481.37 371.73"
fill="none" stroke="black" stroke-width="0.5"/>
<path d="M481.37 371.73L477.72 377.21"
fill="none" stroke="black" stroke-width="0.5"/>
<path d="M477.72 377.21L472.23 379.04"
fill="none" stroke="black" stroke-width="0.5"/>
<path d="M472.23 379.04L468.58 379.04"
fill="none" stroke="black" stroke-width="0.5"/>
<path d="M468.58 379.04L463.09 377.21"
fill="none" stroke="black" stroke-width="0.5"/>
<path d="M463.09 377.21L461.26 373.55"
fill="none" stroke="black" stroke-width="0.5"/>
<path d="M506.97 340.64L501.49 342.47"
fill="none" stroke="black" stroke-width="0.5"/>
<path d="M501.49 342.47L497.83 347.96"
fill="none" stroke="black" stroke-width="0.5"/>
<path d="M497.83 347.96L496 357.1"
fill="none" stroke="black" stroke-width="0.5"/>
<path d="M496 357.1L496 362.58Z"
fill="none" stroke="black" stroke-width="0.5"/>
<path d="M496 362.58L497.83 371.73"
fill="none" stroke="black" stroke-width="0.5"/>
<path d="M497.83 371.73L501.49 377.21"
fill="none" stroke="black" stroke-width="0.5"/>
<path d="M501.49 377.21L506.97 379.04"
fill="none" stroke="black" stroke-width="0.5"/>
<path d="M506.97 379.04L510.63 379.04"
fill="none" stroke="black" stroke-width="0.5"/>
<path d="M510.63 379.04L516.11 377.21"
fill="none" stroke="black" stroke-width="0.5"/>
<path d="M516.11 377.21L519.77 371.73"
fill="none" stroke="black" stroke-width="0.5"/>
<path d="M519.77 371.73L521.6 362.58"
fill="none" stroke="black" stroke-width="0.5"/>
<path d="M521.6 362.58L521.6 357.1Z"
fill="none" stroke="black" stroke-width="0.5"/>
<path d="M521.6 357.1L519.77 347.96"
fill="none" stroke="black" stroke-width="0.5"/>
<path d="M519.77 347.96L516.11 342.47"
fill="none" stroke="black" stroke-width="0.5"/>
<path d="M516.11 342.47L510.63 340.64"
fill="none" stroke="black" stroke-width="0.5"/>
<path d="M510.63 340.64L506.97 340.64"
fill="none" stroke="black" stroke-width="0.5"/>
<path d="M543.54 340.64L538.05 342.47"
fill="none" stroke="black" stroke-width="0.5"/>
<path d="M538.05 342.47L534.4 347.96"
fill="none" stroke="black" stroke-width="0.5"/>
<path d="M534.4 347.96L532.57 357.1"
fill="none" stroke="black" stroke-width="0.5"/>
<path d="M532.57 357.1L532.57 362.58Z"
fill="none" stroke="black" stroke-width="0.5"/>
<path d="M532.57 362.58L534.4 371.73"
fill="none" stroke="black" stroke-width="0.5"/>
<path d="M534.4 371.73L538.05 377.21"
fill="none" stroke="black" stroke-width="0.5"/>
<path d="M538.05 377.21L543.54 379.04"
fill="none" stroke="black" stroke-width="0.5"/>
<path d="M543.54 379.04L547.2 379.04"
fill="none" stroke="black" stroke-width="0.5"/>
<path d="M547.2 379.04L552.68 377.21"
fill="none" stroke="black" stroke-width="0.5"/>
<path d="M552.68 377.21L556.34 371.73"
fill="none" stroke="black" stroke-width="0.5"/>
<path d="M556.34 371.73L558.17 362.58"
fill="none" stroke="black" stroke-width="0.5"/>
<path d="M558.17 362.58L558.17 357.1Z"
fill="none" stroke="black" stroke-width="0.5"/>
<path d="M558.17 357.1L556.34 347.96"
fill="none" stroke="black" stroke-width="0.5"/>
<path d="M556.34 347.96L552.68 342.47"
fill="none" stroke="black" stroke-width="0.5"/>
<path d="M552.68 342.47L547.2 340.64"
fill="none" stroke="black" stroke-width="0.5"/>
<path d="M547.2 340.64L543.54 340.64"
fill="none" stroke="black" stroke-width="0.5"/>
<path d="M223.05 301.38L223.05 301.38Z"
fill="none" stroke="black" stroke-width="0.5"/>
<path d="M368.19 301.38L368.19 301.38Z"
fill="none" stroke="black" stroke-width="0.5"/>
<path d="M368.19 359.84L368.19 359.84Z"
fill="none" stroke="black" stroke-width="0.5"/>
</svg>
